<svg width="51" height="46" viewBox="0 0 51 46" fill="none" xmlns="http://www.w3.org/2000/svg">
<path d="M29.559 42.7405L29.9061 42.8521L28.3731 19.845L3.15089 15.9249L8.43493 36.0351L29.559 42.7405Z" fill="white" stroke="#4C4C4D" stroke-linecap="round" stroke-linejoin="round"/>
<path d="M47.7258 28.0713L29.9061 42.8522L28.3731 19.845L47.0377 6.01172L47.7258 28.0713Z" fill="white" stroke="black" stroke-linecap="round" stroke-linejoin="round"/>
<path d="M21.2633 3.15088L3.15089 15.9249L28.3731 19.845L47.0377 6.01169L21.2633 3.15088Z" fill="white" stroke="black" stroke-linecap="round" stroke-linejoin="round"/>
<path d="M6.98417 36.4163C7.11482 36.9135 7.49101 37.3092 7.98101 37.4647L29.4522 44.2818C29.9388 44.4363 30.4707 44.3326 30.8637 44.0066L48.6834 29.2258C49.0396 28.9304 49.2395 28.4871 49.225 28.0245L48.537 5.96492C48.5137 5.21871 47.9452 4.6032 47.2032 4.52084L21.4288 1.66003C21.0646 1.61961 20.6982 1.71389 20.3988 1.92507L2.28637 14.6991C1.77474 15.06 1.54103 15.7006 1.70013 16.3061L6.98417 36.4163Z" stroke="black" stroke-width="3" stroke-linecap="round" stroke-linejoin="round"/>
</svg>
