<svg width="51" height="46" viewBox="0 0 51 46" fill="none" xmlns="http://www.w3.org/2000/svg">
<path d="M29.4846 42.7405L29.8316 42.8521L28.2986 19.845L3.07642 15.9249L8.36046 36.0351L29.4846 42.7405Z" fill="white" stroke="#4C4C4D" stroke-linecap="round" stroke-linejoin="round"/>
<path d="M47.6513 28.0713L29.8316 42.8522L28.2986 19.845L46.9632 6.01172L47.6513 28.0713Z" fill="white" stroke="black" stroke-linecap="round" stroke-linejoin="round"/>
<path d="M21.1888 3.15088L3.07642 15.9249L28.2986 19.845L46.9632 6.01169L21.1888 3.15088Z" fill="white" stroke="black" stroke-linecap="round" stroke-linejoin="round"/>
<path d="M6.9097 36.4163C7.04035 36.9135 7.41654 37.3092 7.90654 37.4647L29.3777 44.2818C29.8644 44.4363 30.3962 44.3326 30.7892 44.0066L48.6089 29.2258C48.9651 28.9304 49.165 28.4871 49.1506 28.0245L48.4625 5.96492C48.4392 5.21871 47.8707 4.6032 47.1287 4.52084L21.3543 1.66003C20.9901 1.61961 20.6237 1.71389 20.3243 1.92507L2.2119 14.6991C1.70027 15.06 1.46656 15.7006 1.62566 16.3061L6.9097 36.4163Z" stroke="black" stroke-width="3" stroke-linecap="round" stroke-linejoin="round"/>
</svg>
